<svg xmlns="http://www.w3.org/2000/svg"><symbol id="icon--cta" viewBox="0 0 80.4 82.4"><path stroke="#FFF" stroke-miterlimit="10" d="M.5.8l78.8 40.4L.5 81.6z"/></symbol><symbol id="icon--quote-marks" viewBox="0 0 86 29.9"><path d="M17.7 1.3c-6.2 2.5-10.2 5.4-10.2 9 0 1.4.3 2.5.7 3 4.7.7 8.1 3.8 8.1 9.1 0 3.8-3.5 7.4-7.5 7.4-5.1 0-8.8-3.5-8.8-10C0 9.5 7.2 3.1 17.3 0l.4 1.3zm20.9 0c-6.2 2.5-10.2 5.4-10.2 9.1 0 1.4.3 2.5.7 3 4.7.7 8.1 3.8 8.1 9.1 0 3.8-3.5 7.4-7.5 7.4-5.1 0-8.8-3.5-8.8-10C20.9 9.5 28.2 3.1 38.2 0l.4 1.3zM48 29.9l-.6-1.4c6.4-2.5 10.2-5.2 10.2-9.1 0-1.3-.1-2.4-.6-2.8-4.7-.7-8.1-4-8.1-9.1 0-4 3.4-7.5 7.5-7.5C61.5 0 65 3.5 65 10c.1 10.2-7.1 16.6-17 19.9zm20.9 0l-.6-1.4c6.4-2.5 10.2-5.2 10.2-9.1 0-1.3-.1-2.4-.6-2.8-4.7-.7-8.1-4-8.1-9.1 0-4 3.4-7.5 7.5-7.5C82.5 0 86 3.5 86 10c0 10.2-7.2 16.6-17.1 19.9z"/></symbol></svg>