<?xml version="1.0" encoding="utf-8"?>
<!-- Generator: Adobe Illustrator 19.0.1, SVG Export Plug-In . SVG Version: 6.00 Build 0)  -->
<svg version="1.1" id="Layer_1" xmlns="http://www.w3.org/2000/svg" xmlns:xlink="http://www.w3.org/1999/xlink" x="0px" y="0px"
	 viewBox="0 0 86 29.9" enable-background="new 0 0 86 29.9" xml:space="preserve">
<g>
	<path d="M17.7,1.3C11.5,3.8,7.5,6.7,7.5,10.3c0,1.4,0.3,2.5,0.7,3c4.7,0.7,8.1,3.8,8.1,9.1c0,3.8-3.5,7.4-7.5,7.4
		c-5.1,0-8.8-3.5-8.8-10C0,9.5,7.2,3.1,17.3,0L17.7,1.3z M38.6,1.3c-6.2,2.5-10.2,5.4-10.2,9.1c0,1.4,0.3,2.5,0.7,3
		c4.7,0.7,8.1,3.8,8.1,9.1c0,3.8-3.5,7.4-7.5,7.4c-5.1,0-8.8-3.5-8.8-10C20.9,9.5,28.2,3.1,38.2,0L38.6,1.3z"/>
	<path d="M48,29.9l-0.6-1.4c6.4-2.5,10.2-5.2,10.2-9.1c0-1.3-0.1-2.4-0.6-2.8c-4.7-0.7-8.1-4-8.1-9.1
		c0-4,3.4-7.5,7.5-7.5c5.1,0,8.6,3.5,8.6,10C65.1,20.2,57.9,26.6,48,29.9z M68.9,29.9l-0.6-1.4c6.4-2.5,10.2-5.2,10.2-9.1
		c0-1.3-0.1-2.4-0.6-2.8c-4.7-0.7-8.1-4-8.1-9.1c0-4,3.4-7.5,7.5-7.5C82.5,0,86,3.5,86,10C86,20.2,78.8,26.6,68.9,29.9z"/>
</g>
</svg>
