<?xml version="1.0" encoding="utf-8"?>
<!-- Generator: Adobe Illustrator 19.0.1, SVG Export Plug-In . SVG Version: 6.00 Build 0)  -->
<svg version="1.1" id="Layer_1" xmlns="http://www.w3.org/2000/svg" xmlns:xlink="http://www.w3.org/1999/xlink" x="0px" y="0px"
	 viewBox="0 0 222 155" enable-background="new 0 0 222 155" xml:space="preserve">
<path d="M182,152.4l-16-15.4l-7.1-0.7l-11.6,6.7l-63.1-28.4l-7.8-10.7l3.2-8.6l-2.8-9.5L51.6,59.5l1.3-4l-17-19.1l-6.9-18.9L21.5,13
	l0.6,11L40,50.3l13.5,28.8l-6.2,5.5L30.9,65.4l-0.4-10.2L12,41.4l8.1-2.4l0.1-3.3l-9.1-10.6L2.3,1.5h19.1l22.2,12.6h20V10L78,12.1
	l18.7,21.6l6.3-7.1l11.3,2.1l15.7,26.6l11.5,2.8v6.8l-4.3,19.6l13.8,29.3l13.9,4.8l13.2-6.1l3.6,1.6l3.1-2.8l4.4-15.5l15.5-7.5
	l15.2,0.5l-4.9,22.6l-10.9,10.9H191l-0.6,5.1l7.4,7.9l-13.7,2L182,152.4z"/>
</svg>
