<svg xmlns="http://www.w3.org/2000/svg"><symbol id="icon--cta" viewBox="0 0 80.4 82.4"><path stroke="#FFF" stroke-miterlimit="10" d="M.5.8l78.8 40.4L.5 81.6z"/></symbol><symbol id="icon--pizza" viewBox="0 0 800 500"><g fill-rule="evenodd"><path d="M120.33 313.165l469.543-49.13c1.075-14.108-9.144-26.705-13.715-40.058-57.012-84.15-128.546-160.74-255.747-211.632-68.575-4.03-62.12 16.124-70.19 67.27 73.956 39.554 185.02 51.143 212.183 148.14l-286.405 64.246c-13.446-6.8-26.892-6.8-40.338-2.266l-15.33 23.43z" opacity=".527" fill="#b98b75"/><path d="M251.053 82.412c11.335 2.55 22.67 5.098 34.005 7.646 92.493 26.76 171.385 73.91 177.506 137.625-6.348 10.62-16.096 18.69-19.043 31.858-7.48 47.15-21.082 42.053-30.604 15.293-.906-32.07-5.894-34.83-21.083-29.31-24.256 12.744-65.516 13.38-99.294 13.38-4.308 22.3-29.02 17.84-43.527 26.76-7.482 81.132-17.683 78.16-30.605.64-24.483 9.344-51.687.848-77.53 1.273-19.95 37.167-33.78 40.565-53.73 25.486-9.974 35.256 21.537 48.85-23.122 35.68-41.713-13.38 12.638 68.973 2.89 93.423-14.965 9.133-54.35-35.76-38.256-96.608-20.63-33.344-16.095-48.21 10.202-61.167 4.76-28.672 23.123-38.866 42.846-45.875l34.685-26.76c14.51-32.495 33.098-42.69 57.81-49.698 2.266-37.805 20.175-44.39 43.525-50.336 7.708-14.865 17.456-25.272 33.325-29.308z" fill="#e9e9af"/><path d="M299.703 4.448c-13.45-.083-26.592 1.75-39.22 5.647-20.235 23.596-10.385 45.41-15.58 68.12-17.65 4.55-25.01 16.685-35.315 30.183-35.11 11.403-39.376 18.65-43.635 48.634-28.94 6.793-40.23 20.467-58.153 55.475-16.653 4.993-21.564 10.703-30.137 25.33-29.235-2.93-36.437 15.44-43.635 42.79-36.518 17.89-32.647 47.515-10.4 68.16-1.038 16.87-2.06 33.713-3.098 50.583 15.886 60.52 78.796 76.31 49.875 1.948-4.156-16.545-23.967-33.084-12.48-49.628 19.55 11.522 29.563 18.928 32.218-25.292 18.846 5.806 27.447 2.906 32.217-3.26l95.548-10.14v31.89c4.04 34.646 27.195 12.848 36.377-11.69l-2.25-23.86 160.492-17.1c2.562 5.62 6.767 9.7 14.177 10.777 13.38-1.02 18.22-6.872 20.077-14.435l140.925-14.992c7.48-8.708 10.88-14.245 2.037-17.855L447.97 272.196c-.025-6.46.157-12.775 2.63-17.815 3.863-17.183 14.322-24.73 26.998-35.033 7.44-7.06 16.107-8.418 16.936-19.605 30.987 4.93 59.298 28.195 92.45 53.207 6.627-8.12 3.107 3.37 4.456-12.647C505.103 99.673 393.86 5.033 299.703 4.448zm-12.098 14.396c4.916-.186 10.72.402 17.573 1.948 99.707 18.332 188.384 106.166 263.85 199.51-3.937 25.193-65.898-59.704-93.34-21.435-.693 3.568-12.402 14.683-16.767 34.08-18.705 6.392-20.79 16.93-23.175 39.726 1.19 24.08-2.722 22.866-6.876 23.224-4.04.348-7.415.342-9.637-20.32h-.085c-.012-.2.045-15.903 1.316-25.093 3.457-11.134-4.507-18.113-15.578-18.492-11.08 4.542-22.155 9.06-33.236 13.6l-24.916 1.95c-10.735-5.3-20.014-.937-32.217 6.84-8.657-1.623-17.32-3.27-25.978-4.892-2.77 6.812-5.55 13.627-8.32 20.44-10.735 2.27-21.44 4.57-32.175 6.84-1.153 6.363-2.327 12.724-3.48 19.087l-2.632 14.555c-1.084 5.98-2.185 11.956-3.27 17.935-4.342 23.17-7.12 10.143-10.908-16.424l-2.546-16.9s-1.267-10.41-2.124-16.345c-4.155-3.893-8.28-7.758-12.437-11.65-7.965 5.838-15.934 11.657-23.898 17.496-5.76 3.077-12.995 4.11-23.898.994 7.712 17.008 18.34 16.82 36.335 9.743 7.055-2.3 13.2-2.5 16.51 3.977l-87.525 10.14c2.68-9.39 5.328-18.917 17.02-20.956-15.015-2.21-23.462 12.91-34.805 26.525-9.646-.695-17.482-8.686-24.407-11.93-14.093 9.536-12.75 14.256-11.418 38.932-9.004-.325-17.3-4.07-27.04-.955-3.714 15.61-8.896 26.414 2.08 44.777 24.273 48.34 14.756 76.71-19.737 8.748-2.534-10.92 1.387-18.826 2.08-28.234 7.556-21.726-12.036-39.336-10.357-48.674 1.312-11.797 8.464-22.21 25.936-29.19 6.59-28.44 12.442-31.4 37.396-39.885 9.097-14.992 17.482-21.732 40.536-24.337 6.946-37.11 22.683-48.76 56.073-53.526 5.752-3.725 45.45 6.38 66.388 17.22 9.11-6.05 40.087-17.006 65.707-10.618 7.03-7.957 11.86-14.463 34.255-20.122-5.787-.787-1.418.176-13.965-2.824-26.83-32.31-56.303-25.875-70.59-25.25-2.727-4.49-12.076-11.835-24.958-14.596 5.48 8.708 17.625 16.88 9.593 17.3-8.032.417-32.13 15.368-37.99 34.436-9.936-7.796-27.78-2.157-26.91-7.277 4.16-24.515 24.542-36.897 39.007-40.84 5.51-14.106 21.277-27.502 36.335-34.04 5.058-16.26 2.775-31.153 4.16-46.725 3.486-10.33 10.298-17.936 25.043-18.49zm112.103 232.594c5.708.128 8.487-.44 8.32 10.697.288 4.89.48 9.858.933 14.595l-147.587 17.18c2.476-1.502 4.953-2.994 7.428-4.495 21.366 2.134 26.564-3.993 33.237-20.44 19.256 7.442 32.664 3.882 46.777-10.697 21.375 6.675 33.926 6.442 50.894-6.84z"/><path d="M447.556 190.902l11.753-29.592h-17.63l12.487-22.022-31.586 4.818c3.92-9.635 7.837-19.27 11.754-28.904l-34.524 18.58 9.55-30.967-24.24 16.516 7.344-26.15c-6.856 4.818-13.71 9.635-20.567 14.452l-.735-25.462-19.098 28.215-5.877-33.72L330.76 93.18l-3.672-24.774-7.345 13.076L307.99 59.46c-2.45 5.964-4.897 11.928-7.346 17.892l-15.425-15.14V82.17c-4.9 4.588-9.796 9.175-14.693 13.763l30.117 2.065 35.26 19.27c-6.122 3.898-12.243 7.798-18.365 11.698 43.583-5.276 58.52 3.21 71.252 25.462 33.544 4.588 46.522 13.993 58.764 36.474zM436.04 208.57c-30.605-.638-57.128 12.742-75.49 24.848-25.618-9.345-43.754-15.504-80.933-5.097 7.708-6.37 15.416-12.742 23.123-19.114-17.91-9.982-27.657-5.947-41.486-8.92 17.91-2.336 37.18-11.044 51.688 4.46 42.393-34.406 87.506-43.327 102.695 0 6.8 1.274 13.602 2.55 20.403 3.823zM128.635 225.772c6.574 3.186 17.23 5.097 19.723 9.557-8.16 4.035-13.602 10.62-16.323 17.84-12.468-.213-26.297 5.31-37.405 14.654 22.67-1.487 45.34-5.522 68.01 5.097 16.322-10.405 28.564-15.715 48.967-15.927 11.788-20.177 12.695-26.973 53.728-28.035-19.043-8.92-34.005-10.195-48.967 1.91-6.575-4.246-13.15-8.494-19.723-12.742l26.524-28.035c-20.63 5.523-35.14 12.957-43.528 29.948-8.16-1.275-14.962 1.274-20.403 5.734-10.202-2.55-20.404-2.55-30.605 0z"/><path d="M148.165 255.344c6.05 1.008 12.1 3.15 18.152 8.692 11.16-8.944 22.32-13.353 37.112-16.628 4.974-24.943-46.525-16.63-55.265 7.936zM223.598 167.29c7.126 1.134 14.656 3.023 20.17 7.936 20.303-5.417 34.96-14.613 62.12-7.18 4.304-3.905 9.817-6.677 16.54-7.18-23.397-35.147-73.013-23.81-98.83 6.424zM323.638 211.884c13.446 1.26 25.28 3.275 37.918 9.448 13.58-9.322 21.514-13.73 39.532-17.762-16.54-34.643-59.298-17.51-77.45 8.314z" fill="#c81919"/></g></symbol><symbol id="icon--quote-marks" viewBox="0 0 86 29.9"><path d="M17.7 1.3c-6.2 2.5-10.2 5.4-10.2 9 0 1.4.3 2.5.7 3 4.7.7 8.1 3.8 8.1 9.1 0 3.8-3.5 7.4-7.5 7.4-5.1 0-8.8-3.5-8.8-10C0 9.5 7.2 3.1 17.3 0l.4 1.3zm20.9 0c-6.2 2.5-10.2 5.4-10.2 9.1 0 1.4.3 2.5.7 3 4.7.7 8.1 3.8 8.1 9.1 0 3.8-3.5 7.4-7.5 7.4-5.1 0-8.8-3.5-8.8-10C20.9 9.5 28.2 3.1 38.2 0l.4 1.3zM48 29.9l-.6-1.4c6.4-2.5 10.2-5.2 10.2-9.1 0-1.3-.1-2.4-.6-2.8-4.7-.7-8.1-4-8.1-9.1 0-4 3.4-7.5 7.5-7.5C61.5 0 65 3.5 65 10c.1 10.2-7.1 16.6-17 19.9zm20.9 0l-.6-1.4c6.4-2.5 10.2-5.2 10.2-9.1 0-1.3-.1-2.4-.6-2.8-4.7-.7-8.1-4-8.1-9.1 0-4 3.4-7.5 7.5-7.5C82.5 0 86 3.5 86 10c0 10.2-7.2 16.6-17.1 19.9z"/></symbol><symbol id="icon--thumbsup" viewBox="0 0 1024 1024"><path fill="#444" d="M982 426l-2 4h2v82q0 16-6 32L846 844q-20 52-78 52H384q-34 0-60-26t-26-60V384q0-34 26-60L604 42l46 46q18 18 18 44v14l-42 196h270q34 0 60 25t26 59zM42 896V384h172v512H42z"/></symbol></svg>